<?xml version="1.0" encoding="utf-8"?>
<svg xmlns="http://www.w3.org/2000/svg" xmlns:xlink="http://www.w3.org/1999/xlink" width="600" height="400" viewBox="0 0 2400 1600">
<defs>
  <clipPath id="clip0000">
    <rect x="0" y="0" width="2400" height="1600"/>
  </clipPath>
</defs>
<path clip-path="url(#clip0000)" d="
M0 1600 L2400 1600 L2400 0 L0 0  Z
  " fill="#ffffff" fill-rule="evenodd" fill-opacity="1"/>
<defs>
  <clipPath id="clip0001">
    <rect x="480" y="0" width="1681" height="1600"/>
  </clipPath>
</defs>
<path clip-path="url(#clip0000)" d="
M202.373 1425.62 L2352.76 1425.62 L2352.76 47.2441 L202.373 47.2441  Z
  " fill="#ffffff" fill-rule="evenodd" fill-opacity="1"/>
<defs>
  <clipPath id="clip0002">
    <rect x="202" y="47" width="2151" height="1379"/>
  </clipPath>
</defs>
<polyline clip-path="url(#clip0002)" style="stroke:#000000; stroke-width:2; stroke-opacity:0.1; fill:none" points="
  263.233,1425.62 263.233,47.2441 
  "/>
<polyline clip-path="url(#clip0002)" style="stroke:#000000; stroke-width:2; stroke-opacity:0.1; fill:none" points="
  466.099,1425.62 466.099,47.2441 
  "/>
<polyline clip-path="url(#clip0002)" style="stroke:#000000; stroke-width:2; stroke-opacity:0.1; fill:none" points="
  668.965,1425.62 668.965,47.2441 
  "/>
<polyline clip-path="url(#clip0002)" style="stroke:#000000; stroke-width:2; stroke-opacity:0.1; fill:none" points="
  871.832,1425.62 871.832,47.2441 
  "/>
<polyline clip-path="url(#clip0002)" style="stroke:#000000; stroke-width:2; stroke-opacity:0.1; fill:none" points="
  1074.7,1425.62 1074.7,47.2441 
  "/>
<polyline clip-path="url(#clip0002)" style="stroke:#000000; stroke-width:2; stroke-opacity:0.1; fill:none" points="
  1277.56,1425.62 1277.56,47.2441 
  "/>
<polyline clip-path="url(#clip0002)" style="stroke:#000000; stroke-width:2; stroke-opacity:0.1; fill:none" points="
  1480.43,1425.62 1480.43,47.2441 
  "/>
<polyline clip-path="url(#clip0002)" style="stroke:#000000; stroke-width:2; stroke-opacity:0.1; fill:none" points="
  1683.3,1425.62 1683.3,47.2441 
  "/>
<polyline clip-path="url(#clip0002)" style="stroke:#000000; stroke-width:2; stroke-opacity:0.1; fill:none" points="
  1886.16,1425.62 1886.16,47.2441 
  "/>
<polyline clip-path="url(#clip0002)" style="stroke:#000000; stroke-width:2; stroke-opacity:0.1; fill:none" points="
  2089.03,1425.62 2089.03,47.2441 
  "/>
<polyline clip-path="url(#clip0002)" style="stroke:#000000; stroke-width:2; stroke-opacity:0.1; fill:none" points="
  2291.9,1425.62 2291.9,47.2441 
  "/>
<polyline clip-path="url(#clip0002)" style="stroke:#000000; stroke-width:2; stroke-opacity:0.1; fill:none" points="
  202.373,1386.61 2352.76,1386.61 
  "/>
<polyline clip-path="url(#clip0002)" style="stroke:#000000; stroke-width:2; stroke-opacity:0.1; fill:none" points="
  202.373,1061.52 2352.76,1061.52 
  "/>
<polyline clip-path="url(#clip0002)" style="stroke:#000000; stroke-width:2; stroke-opacity:0.1; fill:none" points="
  202.373,736.431 2352.76,736.431 
  "/>
<polyline clip-path="url(#clip0002)" style="stroke:#000000; stroke-width:2; stroke-opacity:0.1; fill:none" points="
  202.373,411.343 2352.76,411.343 
  "/>
<polyline clip-path="url(#clip0002)" style="stroke:#000000; stroke-width:2; stroke-opacity:0.1; fill:none" points="
  202.373,86.2547 2352.76,86.2547 
  "/>
<polyline clip-path="url(#clip0000)" style="stroke:#000000; stroke-width:4; stroke-opacity:1; fill:none" points="
  202.373,1425.62 2352.76,1425.62 
  "/>
<polyline clip-path="url(#clip0000)" style="stroke:#000000; stroke-width:4; stroke-opacity:1; fill:none" points="
  202.373,1425.62 202.373,47.2441 
  "/>
<polyline clip-path="url(#clip0000)" style="stroke:#000000; stroke-width:4; stroke-opacity:1; fill:none" points="
  263.233,1425.62 263.233,1409.08 
  "/>
<polyline clip-path="url(#clip0000)" style="stroke:#000000; stroke-width:4; stroke-opacity:1; fill:none" points="
  466.099,1425.62 466.099,1409.08 
  "/>
<polyline clip-path="url(#clip0000)" style="stroke:#000000; stroke-width:4; stroke-opacity:1; fill:none" points="
  668.965,1425.62 668.965,1409.08 
  "/>
<polyline clip-path="url(#clip0000)" style="stroke:#000000; stroke-width:4; stroke-opacity:1; fill:none" points="
  871.832,1425.62 871.832,1409.08 
  "/>
<polyline clip-path="url(#clip0000)" style="stroke:#000000; stroke-width:4; stroke-opacity:1; fill:none" points="
  1074.7,1425.62 1074.7,1409.08 
  "/>
<polyline clip-path="url(#clip0000)" style="stroke:#000000; stroke-width:4; stroke-opacity:1; fill:none" points="
  1277.56,1425.62 1277.56,1409.08 
  "/>
<polyline clip-path="url(#clip0000)" style="stroke:#000000; stroke-width:4; stroke-opacity:1; fill:none" points="
  1480.43,1425.62 1480.43,1409.08 
  "/>
<polyline clip-path="url(#clip0000)" style="stroke:#000000; stroke-width:4; stroke-opacity:1; fill:none" points="
  1683.3,1425.62 1683.3,1409.08 
  "/>
<polyline clip-path="url(#clip0000)" style="stroke:#000000; stroke-width:4; stroke-opacity:1; fill:none" points="
  1886.16,1425.62 1886.16,1409.08 
  "/>
<polyline clip-path="url(#clip0000)" style="stroke:#000000; stroke-width:4; stroke-opacity:1; fill:none" points="
  2089.03,1425.62 2089.03,1409.08 
  "/>
<polyline clip-path="url(#clip0000)" style="stroke:#000000; stroke-width:4; stroke-opacity:1; fill:none" points="
  2291.9,1425.62 2291.9,1409.08 
  "/>
<polyline clip-path="url(#clip0000)" style="stroke:#000000; stroke-width:4; stroke-opacity:1; fill:none" points="
  202.373,1386.61 228.178,1386.61 
  "/>
<polyline clip-path="url(#clip0000)" style="stroke:#000000; stroke-width:4; stroke-opacity:1; fill:none" points="
  202.373,1061.52 228.178,1061.52 
  "/>
<polyline clip-path="url(#clip0000)" style="stroke:#000000; stroke-width:4; stroke-opacity:1; fill:none" points="
  202.373,736.431 228.178,736.431 
  "/>
<polyline clip-path="url(#clip0000)" style="stroke:#000000; stroke-width:4; stroke-opacity:1; fill:none" points="
  202.373,411.343 228.178,411.343 
  "/>
<polyline clip-path="url(#clip0000)" style="stroke:#000000; stroke-width:4; stroke-opacity:1; fill:none" points="
  202.373,86.2547 228.178,86.2547 
  "/>
<g clip-path="url(#clip0000)">
<text style="fill:#000000; fill-opacity:1; font-family:Arial,Helvetica Neue,Helvetica,sans-serif; font-size:48px; text-anchor:middle;" transform="rotate(0, 263.233, 1479.62)" x="263.233" y="1479.62">-5</text>
</g>
<g clip-path="url(#clip0000)">
<text style="fill:#000000; fill-opacity:1; font-family:Arial,Helvetica Neue,Helvetica,sans-serif; font-size:48px; text-anchor:middle;" transform="rotate(0, 466.099, 1479.62)" x="466.099" y="1479.62">-4</text>
</g>
<g clip-path="url(#clip0000)">
<text style="fill:#000000; fill-opacity:1; font-family:Arial,Helvetica Neue,Helvetica,sans-serif; font-size:48px; text-anchor:middle;" transform="rotate(0, 668.965, 1479.62)" x="668.965" y="1479.62">-3</text>
</g>
<g clip-path="url(#clip0000)">
<text style="fill:#000000; fill-opacity:1; font-family:Arial,Helvetica Neue,Helvetica,sans-serif; font-size:48px; text-anchor:middle;" transform="rotate(0, 871.832, 1479.62)" x="871.832" y="1479.62">-2</text>
</g>
<g clip-path="url(#clip0000)">
<text style="fill:#000000; fill-opacity:1; font-family:Arial,Helvetica Neue,Helvetica,sans-serif; font-size:48px; text-anchor:middle;" transform="rotate(0, 1074.7, 1479.62)" x="1074.7" y="1479.62">-1</text>
</g>
<g clip-path="url(#clip0000)">
<text style="fill:#000000; fill-opacity:1; font-family:Arial,Helvetica Neue,Helvetica,sans-serif; font-size:48px; text-anchor:middle;" transform="rotate(0, 1277.56, 1479.62)" x="1277.56" y="1479.62">0</text>
</g>
<g clip-path="url(#clip0000)">
<text style="fill:#000000; fill-opacity:1; font-family:Arial,Helvetica Neue,Helvetica,sans-serif; font-size:48px; text-anchor:middle;" transform="rotate(0, 1480.43, 1479.62)" x="1480.43" y="1479.62">1</text>
</g>
<g clip-path="url(#clip0000)">
<text style="fill:#000000; fill-opacity:1; font-family:Arial,Helvetica Neue,Helvetica,sans-serif; font-size:48px; text-anchor:middle;" transform="rotate(0, 1683.3, 1479.62)" x="1683.3" y="1479.62">2</text>
</g>
<g clip-path="url(#clip0000)">
<text style="fill:#000000; fill-opacity:1; font-family:Arial,Helvetica Neue,Helvetica,sans-serif; font-size:48px; text-anchor:middle;" transform="rotate(0, 1886.16, 1479.62)" x="1886.16" y="1479.62">3</text>
</g>
<g clip-path="url(#clip0000)">
<text style="fill:#000000; fill-opacity:1; font-family:Arial,Helvetica Neue,Helvetica,sans-serif; font-size:48px; text-anchor:middle;" transform="rotate(0, 2089.03, 1479.62)" x="2089.03" y="1479.62">4</text>
</g>
<g clip-path="url(#clip0000)">
<text style="fill:#000000; fill-opacity:1; font-family:Arial,Helvetica Neue,Helvetica,sans-serif; font-size:48px; text-anchor:middle;" transform="rotate(0, 2291.9, 1479.62)" x="2291.9" y="1479.62">5</text>
</g>
<g clip-path="url(#clip0000)">
<text style="fill:#000000; fill-opacity:1; font-family:Arial,Helvetica Neue,Helvetica,sans-serif; font-size:48px; text-anchor:end;" transform="rotate(0, 178.373, 1404.11)" x="178.373" y="1404.11">0</text>
</g>
<g clip-path="url(#clip0000)">
<text style="fill:#000000; fill-opacity:1; font-family:Arial,Helvetica Neue,Helvetica,sans-serif; font-size:48px; text-anchor:end;" transform="rotate(0, 178.373, 1079.02)" x="178.373" y="1079.02">5</text>
</g>
<g clip-path="url(#clip0000)">
<text style="fill:#000000; fill-opacity:1; font-family:Arial,Helvetica Neue,Helvetica,sans-serif; font-size:48px; text-anchor:end;" transform="rotate(0, 178.373, 753.931)" x="178.373" y="753.931">10</text>
</g>
<g clip-path="url(#clip0000)">
<text style="fill:#000000; fill-opacity:1; font-family:Arial,Helvetica Neue,Helvetica,sans-serif; font-size:48px; text-anchor:end;" transform="rotate(0, 178.373, 428.843)" x="178.373" y="428.843">15</text>
</g>
<g clip-path="url(#clip0000)">
<text style="fill:#000000; fill-opacity:1; font-family:Arial,Helvetica Neue,Helvetica,sans-serif; font-size:48px; text-anchor:end;" transform="rotate(0, 178.373, 103.755)" x="178.373" y="103.755">20</text>
</g>
<g clip-path="url(#clip0000)">
<text style="fill:#000000; fill-opacity:1; font-family:Arial,Helvetica Neue,Helvetica,sans-serif; font-size:66px; text-anchor:middle;" transform="rotate(0, 1277.56, 1559.48)" x="1277.56" y="1559.48">configuration energy, E</text>
</g>
<g clip-path="url(#clip0000)">
<text style="fill:#000000; fill-opacity:1; font-family:Arial,Helvetica Neue,Helvetica,sans-serif; font-size:66px; text-anchor:middle;" transform="rotate(-90, 89.2861, 736.431)" x="89.2861" y="736.431">Boltzmann weight, exp(-E/T)</text>
</g>
<polyline clip-path="url(#clip0002)" style="stroke:#4100eb; stroke-width:6; stroke-opacity:1; fill:none" points="
  263.233,-8262.87 283.519,-7344.6 303.806,-6513.72 324.093,-5761.9 344.379,-5081.63 364.666,-4466.1 384.953,-3909.14 405.239,-3405.18 425.526,-2949.18 445.812,-2536.58 
  466.099,-2163.24 486.386,-1825.42 506.672,-1519.76 526.959,-1243.18 547.246,-992.924 567.532,-766.481 587.819,-561.588 608.106,-376.192 628.392,-208.44 648.679,-56.651 
  668.965,80.6933 689.252,204.968 709.539,317.415 729.825,419.163 750.112,511.227 770.399,594.531 790.685,669.907 810.972,738.11 831.259,799.823 851.545,855.663 
  871.832,906.189 892.118,951.907 912.405,993.274 932.692,1030.7 952.978,1064.57 973.265,1095.22 993.552,1122.95 1013.84,1148.04 1034.12,1170.74 1054.41,1191.28 
  1074.7,1209.87 1094.98,1226.69 1115.27,1241.91 1135.56,1255.68 1155.84,1268.14 1176.13,1279.41 1196.42,1289.61 1216.7,1298.84 1236.99,1307.2 1257.28,1314.75 
  1277.56,1321.59 1297.85,1327.78 1318.14,1333.38 1338.42,1338.44 1358.71,1343.03 1379,1347.17 1399.28,1350.93 1419.57,1354.32 1439.86,1357.39 1460.14,1360.17 
  1480.43,1362.69 1500.72,1364.97 1521,1367.03 1541.29,1368.89 1561.58,1370.57 1581.86,1372.1 1602.15,1373.48 1622.44,1374.73 1642.72,1375.86 1663.01,1376.88 
  1683.3,1377.81 1703.58,1378.65 1723.87,1379.4 1744.16,1380.09 1764.44,1380.71 1784.73,1381.27 1805.02,1381.78 1825.3,1382.24 1845.59,1382.65 1865.88,1383.03 
  1886.16,1383.37 1906.45,1383.68 1926.74,1383.96 1947.02,1384.21 1967.31,1384.44 1987.6,1384.64 2007.88,1384.83 2028.17,1385 2048.46,1385.15 2068.74,1385.29 
  2089.03,1385.42 2109.32,1385.53 2129.6,1385.63 2149.89,1385.73 2170.18,1385.81 2190.46,1385.89 2210.75,1385.95 2231.04,1386.02 2251.32,1386.07 2271.61,1386.12 
  2291.9,1386.17 
  "/>
<polyline clip-path="url(#clip0002)" style="stroke:#eb0041; stroke-width:6; stroke-opacity:1; fill:none" points="
  263.233,972.341 283.519,987.404 303.806,1001.92 324.093,1015.91 344.379,1029.38 364.666,1042.37 384.953,1054.89 405.239,1066.95 425.526,1078.57 445.812,1089.77 
  466.099,1100.57 486.386,1110.97 506.672,1120.99 526.959,1130.65 547.246,1139.95 567.532,1148.92 587.819,1157.56 608.106,1165.89 628.392,1173.92 648.679,1181.65 
  668.965,1189.1 689.252,1196.28 709.539,1203.2 729.825,1209.87 750.112,1216.3 770.399,1222.49 790.685,1228.46 810.972,1234.21 831.259,1239.75 851.545,1245.09 
  871.832,1250.23 892.118,1255.19 912.405,1259.97 932.692,1264.58 952.978,1269.01 973.265,1273.29 993.552,1277.41 1013.84,1281.38 1034.12,1285.2 1054.41,1288.89 
  1074.7,1292.44 1094.98,1295.87 1115.27,1299.17 1135.56,1302.35 1155.84,1305.41 1176.13,1308.36 1196.42,1311.21 1216.7,1313.95 1236.99,1316.59 1257.28,1319.14 
  1277.56,1321.59 1297.85,1323.95 1318.14,1326.23 1338.42,1328.43 1358.71,1330.54 1379,1332.58 1399.28,1334.55 1419.57,1336.44 1439.86,1338.26 1460.14,1340.02 
  1480.43,1341.71 1500.72,1343.35 1521,1344.92 1541.29,1346.44 1561.58,1347.9 1581.86,1349.3 1602.15,1350.66 1622.44,1351.97 1642.72,1353.23 1663.01,1354.44 
  1683.3,1355.61 1703.58,1356.74 1723.87,1357.82 1744.16,1358.87 1764.44,1359.88 1784.73,1360.85 1805.02,1361.79 1825.3,1362.69 1845.59,1363.56 1865.88,1364.4 
  1886.16,1365.2 1906.45,1365.98 1926.74,1366.73 1947.02,1367.46 1967.31,1368.15 1987.6,1368.82 2007.88,1369.47 2028.17,1370.09 2048.46,1370.69 2068.74,1371.27 
  2089.03,1371.83 2109.32,1372.37 2129.6,1372.88 2149.89,1373.38 2170.18,1373.86 2190.46,1374.33 2210.75,1374.77 2231.04,1375.2 2251.32,1375.62 2271.61,1376.02 
  2291.9,1376.4 
  "/>
<polyline clip-path="url(#clip0002)" style="stroke:#41eb00; stroke-width:6; stroke-opacity:1; fill:none" points="
  263.233,1209.87 283.519,1213.37 303.806,1216.8 324.093,1220.16 344.379,1223.46 364.666,1226.69 384.953,1229.86 405.239,1232.96 425.526,1236 445.812,1238.99 
  466.099,1241.91 486.386,1244.77 506.672,1247.58 526.959,1250.34 547.246,1253.03 567.532,1255.68 587.819,1258.27 608.106,1260.81 628.392,1263.3 648.679,1265.74 
  668.965,1268.14 689.252,1270.48 709.539,1272.78 729.825,1275.04 750.112,1277.25 770.399,1279.41 790.685,1281.53 810.972,1283.62 831.259,1285.65 851.545,1287.65 
  871.832,1289.61 892.118,1291.53 912.405,1293.42 932.692,1295.26 952.978,1297.07 973.265,1298.84 993.552,1300.58 1013.84,1302.28 1034.12,1303.95 1054.41,1305.59 
  1074.7,1307.2 1094.98,1308.77 1115.27,1310.31 1135.56,1311.82 1155.84,1313.3 1176.13,1314.75 1196.42,1316.18 1216.7,1317.57 1236.99,1318.94 1257.28,1320.28 
  1277.56,1321.59 1297.85,1322.88 1318.14,1324.14 1338.42,1325.38 1358.71,1326.59 1379,1327.78 1399.28,1328.94 1419.57,1330.08 1439.86,1331.2 1460.14,1332.3 
  1480.43,1333.38 1500.72,1334.43 1521,1335.46 1541.29,1336.48 1561.58,1337.47 1581.86,1338.44 1602.15,1339.4 1622.44,1340.33 1642.72,1341.25 1663.01,1342.14 
  1683.3,1343.03 1703.58,1343.89 1723.87,1344.73 1744.16,1345.56 1764.44,1346.38 1784.73,1347.17 1805.02,1347.95 1825.3,1348.72 1845.59,1349.47 1865.88,1350.2 
  1886.16,1350.93 1906.45,1351.63 1926.74,1352.32 1947.02,1353 1967.31,1353.67 1987.6,1354.32 2007.88,1354.96 2028.17,1355.59 2048.46,1356.2 2068.74,1356.8 
  2089.03,1357.39 2109.32,1357.97 2129.6,1358.54 2149.89,1359.1 2170.18,1359.64 2190.46,1360.17 2210.75,1360.7 2231.04,1361.21 2251.32,1361.71 2271.61,1362.21 
  2291.9,1362.69 
  "/>
<path clip-path="url(#clip0000)" d="
M1623.16 504.359 L2014.35 504.359 L2014.35 262.439 L1623.16 262.439  Z
  " fill="#ffffff" fill-rule="evenodd" fill-opacity="1"/>
<polyline clip-path="url(#clip0000)" style="stroke:#000000; stroke-width:4; stroke-opacity:1; fill:none" points="
  1623.16,504.359 2014.35,504.359 2014.35,262.439 1623.16,262.439 1623.16,504.359 
  "/>
<polyline clip-path="url(#clip0000)" style="stroke:#4100eb; stroke-width:6; stroke-opacity:1; fill:none" points="
  1647.16,322.919 1791.16,322.919 
  "/>
<g clip-path="url(#clip0000)">
<text style="fill:#000000; fill-opacity:1; font-family:Arial,Helvetica Neue,Helvetica,sans-serif; font-size:48px; text-anchor:start;" transform="rotate(0, 1815.16, 340.419)" x="1815.16" y="340.419">T = 1.0</text>
</g>
<polyline clip-path="url(#clip0000)" style="stroke:#eb0041; stroke-width:6; stroke-opacity:1; fill:none" points="
  1647.16,383.399 1791.16,383.399 
  "/>
<g clip-path="url(#clip0000)">
<text style="fill:#000000; fill-opacity:1; font-family:Arial,Helvetica Neue,Helvetica,sans-serif; font-size:48px; text-anchor:start;" transform="rotate(0, 1815.16, 400.899)" x="1815.16" y="400.899">T = 2.7</text>
</g>
<polyline clip-path="url(#clip0000)" style="stroke:#41eb00; stroke-width:6; stroke-opacity:1; fill:none" points="
  1647.16,443.879 1791.16,443.879 
  "/>
<g clip-path="url(#clip0000)">
<text style="fill:#000000; fill-opacity:1; font-family:Arial,Helvetica Neue,Helvetica,sans-serif; font-size:48px; text-anchor:start;" transform="rotate(0, 1815.16, 461.379)" x="1815.16" y="461.379">T = 5.0</text>
</g>
</svg>
